<svg version="1.2" xmlns="http://www.w3.org/2000/svg" viewBox="0 0 1547 682" width="1547" height="682"><defs><clipPath clipPathUnits="userSpaceOnUse" id="cp1"><path d="m-2151-4209h4064v5211h-4064z"/></clipPath></defs><style>.a{mix-blend-mode:multiply;fill:#ed1d24}.b{mix-blend-mode:multiply;fill:#231f20}</style><g clip-path="url(#cp1)"><path fill-rule="evenodd" class="a" d="m802.7 357.3h-154.3v-66.1l77.1-56 77.2 56zm110.9-191.8l-47.7 146.7-62.7-20.4-29.6-90.7 77.2-56zm-148.2-164.7l124.9 90.7-38.8 53.4h-95.4l-29.4-90.7zm-202.4 89.9l124.9-90.6 38.8 53.4-29.4 90.6h-95.4zm23.1 220.4l-47.8-146.8 62.9-20.3 77.1 55.9-29.4 90.7zm-466.3 207.6h-49.4v-48.6c0-4-2.5-5.9-7.5-5.9-5.4 0-8 1.9-8 5.9v170.6c0 4 2.6 6 8 6q7.5 0 7.5-6v-61h49.4v62.8c0 11.7-5.8 21-17.3 28.1-11.5 7.1-24.5 10.6-39 10.6-42 0-62.9-14.7-62.9-44.3v-158.7c0-31.9 20.9-48 62.9-48 37.5 0 56.3 14.6 56.3 43.7zm130.8 158.4h-106.1v-246.8h105.4v31.7h-51.1v66.6h46.1v30h-46.1v86.7h51.8zm162.9 0h-55.7l-37.4-131.5v131.5h-45.1v-246.8h61.7l31.4 112.6v-112.6h45.1zm139.6-214.6h-30.3v214.6h-54.3v-214.6h-30.3v-32.1h114.9zm24.7-32.1h54.3v206.9c0 4.9 3 7.4 9.1 7.4 5.9 0 8.8-2.5 8.8-7.4v-206.9h54.4v204.1c0 14.3-6 25.2-17.8 33-11.9 7.9-26.9 11.7-45.4 11.7-17.1 0-32-3.4-44.6-10.4-12.5-7-18.8-18.4-18.8-33.9z"/><path fill-rule="evenodd" class="a" d="m862 677.4h-54c-5.8-6.9-8.8-26.9-8.8-59.6v-0.3l0.2-14.8c0.4-20.5 0.5-31 0.5-31.5q0-12.6-16.5-12.6v118.5h-54.4v-246.8h66.9c15.4 0 28.7 3.5 40 10.5 11.3 6.9 16.9 18 16.9 33.2v29.5c0 19.2-11.1 32.1-33.6 38.9 22.5 5.3 33.6 18.9 33.6 40.8l-0.7 27.1c0 39.4 3.3 61.8 9.9 67.1zm-62.1-161.8v-40.7q0-12.9-16.5-12.9v66.6c11 0 16.5-4.2 16.5-13zm226.1-85.3l-35.5 99.4-17.8 49.9v97.5h-54.2v-95.6c-1.1-8.8-5.7-25.9-13.9-51.2-7.2-21.5-17.6-54.8-31.4-100h51.9l24.4 86.9 27.7-86.9zm77.6 155.9v90.9h-52.9v-246.8h57c22.5 0 39.4 2.9 50.3 8.6q16.5 8.5 16.5 35.1v68.4c0 16.2-4.5 27.6-13.5 34.4-8.9 6.6-28.1 9.8-57.4 9.4zm17.9-48.4v-59.2c0-8.7-5.9-13-17.9-13v85.3c12 0 17.9-4.4 17.9-13.1zm179.2 139.3h-101.5v-246.8h54.3v215h47.2zm150.8-246.7l-35.5 99.4-17.7 49.8v97.5h-54.4v-95.6q-1.6-13.2-13.9-51.1c-7.1-21.5-17.4-54.9-31.3-100h51.9l24.4 86.8 27.6-86.8z"/><path fill-rule="evenodd" class="b" d="m1513.6 443.8c-18.1 0-32.7-14.7-32.7-32.8 0-18.1 14.6-32.8 32.7-32.8 18.2 0 32.8 14.7 32.8 32.8 0 18.1-14.6 32.8-32.8 32.8zm29.7-32.8c0-16.4-13.2-29.7-29.7-29.7-16.4 0-29.7 13.3-29.7 29.7 0 16.5 13.3 29.8 29.7 29.8 16.5 0 29.7-13.3 29.7-29.8z"/><path fill-rule="evenodd" class="b" d="m1501.2 392.8h15.8q4 0.1 6.6 1.2 4.8 2.2 4.8 8.1 0 3-1.3 5c-0.9 1.3-2 2.3-3.5 3.1 1.3 0.6 2.3 1.3 3 2.2 0.7 0.9 1 2.3 1.1 4.3l0.1 4.7c0 1.3 0.2 2.2 0.3 2.9q0.5 1.6 1.6 2.2v0.7h-5.7c-0.2-0.3-0.3-0.7-0.4-1.2q-0.2-0.7-0.3-2.7l-0.2-5.7c-0.1-2.3-1-3.7-2.5-4.5-0.9-0.4-2.3-0.7-4.2-0.7h-10.6v14.8h-4.6zm15.4 15.7c2.1 0 3.9-0.5 5.2-1.3 1.2-0.9 1.9-2.5 1.9-4.8 0-2.4-1-4-2.7-5-1-0.5-2.3-0.7-3.8-0.7h-11.4v11.8z"/></g></svg>